<?xml version="1.0" encoding="utf-8"?>
<!-- Generator: Adobe Illustrator 27.9.0, SVG Export Plug-In . SVG Version: 6.00 Build 0)  -->
<!DOCTYPE svg PUBLIC "-//W3C//DTD SVG 1.1//EN" "http://www.w3.org/Graphics/SVG/1.1/DTD/svg11.dtd" [
	<!ENTITY ns_extend "http://ns.adobe.com/Extensibility/1.0/">
	<!ENTITY ns_ai "http://ns.adobe.com/AdobeIllustrator/10.0/">
	<!ENTITY ns_graphs "http://ns.adobe.com/Graphs/1.0/">
	<!ENTITY ns_vars "http://ns.adobe.com/Variables/1.0/">
	<!ENTITY ns_imrep "http://ns.adobe.com/ImageReplacement/1.0/">
	<!ENTITY ns_sfw "http://ns.adobe.com/SaveForWeb/1.0/">
	<!ENTITY ns_custom "http://ns.adobe.com/GenericCustomNamespace/1.0/">
	<!ENTITY ns_adobe_xpath "http://ns.adobe.com/XPath/1.0/">
]>
<svg version="1.1" id="Logo_asset" xmlns:x="&ns_extend;" xmlns:i="&ns_ai;" xmlns:graph="&ns_graphs;"
	 xmlns="http://www.w3.org/2000/svg" xmlns:xlink="http://www.w3.org/1999/xlink" x="0px" y="0px" viewBox="0 0 453.5 566.9"
	 enable-background="new 0 0 453.5 566.9" xml:space="preserve">
<metadata>
	<sfw  xmlns="&ns_sfw;">
		<slices></slices>
		<sliceSourceBounds  bottomLeftOrigin="true" height="1227.2" width="3734.4" x="1149.5" y="-424.9"></sliceSourceBounds>
	</sfw>
</metadata>
<path fill="#FFFFFF" d="M138.7,282c0.3,7.9,5.3,77,5.2,84.6c-0.1,5.7-1.7,11.6-6.7,10.7c-5-0.8-10.7-3-14.7,1.6
	c-2.4,2.7-5,9.4-5.8,14.5l35.5,0c0.8-7,3.2-19.3,11.9-25.9c0,0,2.1-35.9,3.2-51.2l14.3,8.3c3.7,19.4,5.5,36.9,5.6,40.5
	c0.1,3.2-0.3,6.6-1.4,9c-1,2.1-2.3,3.2-3.9,3.3c-3.9,0.2-9.9-3.2-14.8,0.4c-3.9,2.9-6.5,11.6-7.1,15.6c8.1,0,26.7,0,35.5,0
	c1.4-14,7.2-22.6,11.9-25.8c0.3-5.3,1.2-19.9,1.8-29.8c13,6.7,27.8,12.6,36.3,16.6c4,1.9,11.5,4.4,18.4,8.5
	c-10.8-9.9-22.7-22.2-18.3-56.4c-12,8.4-7.7,32-6.3,34.8c-10.2-3-25.2-10.4-30.4-14.2c-0.1-5.9-0.2-11.7-0.3-10.7
	c-1.7,9.6-3.6,26.7-4.8,32.6c-1.3,6.4-9.2,15.4-11.2,4.5c-3.5-18.9-10.4-64.2-10.4-64.3c0,0-12-39.6,4.6-74.7
	c-20.1,13.9-19.8,45.1-19,56.2c-16-11.1-37.1-28.2-44.9-50.1c-4,2.4-3.9,4.3-9.2,4c5.9-10.6,8-34.9,8-34.9c-3.5,2.6-9.6,5.3-9.6,5.3
	c6.4-24.4,14.6-40.4,23.4-51c-8.2,0-11.3-0.4-14.9,0.8c23.5-45.4,79.5-62.6,79.5-62.6s-9.5-8.2-11.2-16.3
	c12.1,4.4,35.4,10.8,37,11.2c10.4-1.6,34.3-3,39.8-2.8c1.6,0.1,1.6,1.2,0.4,1.9c-6.3,3.4-10.1,5.8-12.9,7.8c4.5-0.1,19.4,0,19.7,4.1
	c-8.9-1.2-30,2.9-30.9,15.6c-0.7,8.9,9.8,15.2,15.8,17.1c-0.9,0.5-23.6,9.5-33.6-13.7c-3.2,0.9-5.4,4.8-5.6,7.1
	c-1.1-0.8-6.9-5.2-8.1-15.2c-43,17.5-47.3,61.4-37.8,77.5c1.9-12.1,24.2-39,55.1-34.5c-2.6,7.8-1.7,18,2.6,22
	c3.3-8.9,12.1-16.9,27.7-23.8c10.8-4.8,33.8-6.4,48.1-11.6c8.6-3.1,11-7.2,11.4-13.4c-10-0.9-16.4,0.9-26.2,2.4
	c-2.5,0.4-5.1-1-5.8-3.2c-0.7-2.1,1-5,6.2-6.4c9.6-2.7,22.7-4.4,27.9-6.4c3.5-1.3,9.8-4.9,10.8-12.5c2.1-5.8,2.4-9.4,1.4-10.7
	c-1.5-1.9-4.9-2.5-8.8-2.3c-6.1,0.2-38,1.8-38,1.8s-4.6-7.8-14.3-8.1c-5.5-0.2-33.7,0.3-44.1,2c-1.7-0.4-33.1-8.8-45.2-13.2
	c-1.9,9,8.9,22,8.9,22s-62.5,19.9-80.5,75.2c3.5-2.3,8.7-4.4,12.8-4.4c-8.6,13.7-18,33-22,54.9c0,0,0,0,0,0
	c3.6,0.1,8.8-1.8,12.3-4.3c0,0-2.7,23.2-8.6,33.8c5.4,0.3,10.3-2,12.4-3.6C119.8,244,126.3,263.4,138.7,282z M175.7,291.3l1.7,11.7
	c0,0-22.3-14-31.6-39.8C159.5,280.5,175.7,291.3,175.7,291.3z M320.5,78.6c2.2-0.6,5.7,0,7.3,0.5c2.6,0.9,1,6-0.4,8.8
	c-1.4,2.8-3.3,2.8-4.9,0.8c-1.7-2.2-3.4-6.3-3.9-7.7C318.2,79.9,319.2,78.9,320.5,78.6z M302.3,491.8c12.3-17.1,21.9-39.4,27.8-69.4
	c-1.8,27.4-6,56.8-32.2,83.4c0.2-11.5-2.7-17.3-6.1-19.8C295.6,485.1,300.8,487.4,302.3,491.8z M146.4,449.1
	c14.7,9.7,40.3,4.7,53.6,16.8C189.5,464.9,166.4,475.5,146.4,449.1z M294.3,459.1c-6,6.1-20.5,29.7-54.1,33.5
	c-23.1,2.6-42.1-8.2-61.4-9.7c20.2-7.4,47.1,3.4,65.5-2.8c-6-3.7-14.8-7.5-17.2-16.1C239.9,465.8,262.6,473.7,294.3,459.1z M325,313
	c29.2,34.2,38.7,82.3,11.2,133.8c20.7-57.8,10.1-92.5-19.1-126.7c-33.4-39.1-82.1-63.9-88.4-111.5c-3.4-25.3,2.4-49.7,41.2-63.7
	c-24,9.5-39.1,31.4-35.8,56.6C240.4,249.2,291.6,273.9,325,313z M267.5,499.8c-26.9,10.6-75.5,17.6-122.6-14.9c0,0,0,0,0,0
	c8.5-1.8,14.4-6.5,14.4-6.5c0,0-45.8-23-46-65.7c36.8,38.7,73.5,22.5,95.6,22.7c-4.6-2.6-10.2-9.6-12.8-18.1c0,0,0,0,0,0
	c15.3,8.3,28.4-6.7,62.2-8.6c19.1-1.1,21.2-15.1,20.7-24.2c-0.2-3.7-1.3-7-2.9-9.9c2.9,2.1,5.3,6,6.5,9.8
	c3.4,11.2,4.3,31.1-14.8,32.2c-17.7,1-29.3,4.9-32.5,8.1c21.3-4.3,42.3,6.9,59.4,6.4c-23.7,16-40.8-5.3-70.4-2.3
	c-3.4,0.4-7.4,0-13-1.7c4.1,10,15.7,11.9,20.3,14.5c-34.5-3.5-65.9,17.3-104.9-10.6c5.6,24.7,32.1,41.4,48.1,45.1
	c-5.8,6-13.3,9-13.3,9C188.8,503.7,236.1,504.5,267.5,499.8z"/>
</svg>
